<svg viewBox="0 0 1236 1028" xmlns="http://www.w3.org/2000/svg"><path fill="#fff" d="M0 0h1236v1028H0z"/><path d="M140.809 896c10.026-310.638 31.988-592.898 59.329-592.898 17.182 0 22.633 133.286 39.237 261.676 15.427 119.29 40.561 234.354 91.689 234.354 64.924 0 185.769-127.812 287.02-242.5 73.926-83.736 157.464-171.424 228.202-209.561 75.359-40.63 184.564-75.753 315.404-80.353" fill="none" stroke="#070" stroke-width="5"/><path d="M134.5 150v746.5H1183" fill="none" stroke="#000" stroke-width="5"/><path d="M134.5 139.5l-9.534 25h19.068l-9.534-25zM1199.5 896.5l-25-9.534v19.069l25-9.535z"/><g font-family="Arial,sans-serif" font-weight="700"><text x="650" y="86" text-anchor="middle" font-size="43">Dunning–Kruger Effect</text><g font-size="36" text-anchor="middle"><text x="80" y="540" transform="rotate(-90 80 540)">Confidence</text><text x="710" y="949">Competence</text></g><g font-size="28"><text x="154" y="278">Peak of “Mount Stupid”</text><text x="688" y="554">Slope of Enlightenment</text><text x="1151" y="238" text-anchor="end">Plateau of Sustainability</text><text x="366" y="837" text-anchor="middle">Valley of Despair</text></g><g font-size="28"><text x="134" y="948">Know nothing</text><text x="1175" y="948" text-anchor="end">Guru</text><text x="68" y="202" text-anchor="middle">High</text><text x="68" y="878" text-anchor="middle">Low</text></g></g></svg>